<?xml version="1.0" standalone="no"?>
<!DOCTYPE svg PUBLIC "-//W3C//DTD SVG 1.1//EN"
"http://www.w3.org/Graphics/SVG/1.1/DTD/svg11.dtd">

<svg width="423" height="449" view_box="0 0 423 449"
xmlns="http://www.w3.org/2000/svg"
xmlns:link="http://www.w3.org/1999/xlink">\n\n<desc>Généré par Mocodo 2.3.7 le Fri, 20 May 2022 07:08:17</desc>

<rect id="frame" x="0" y="0" width="423" height="449" fill="#f7f7f7" stroke="none" stroke-width="0"/>

<!-- Association MAKE A -->
<line x1="359" y1="68" x2="218" y2="68" stroke="#5aae61" stroke-width="2"/>
<text x="278" y="85.0" fill="#762a83" font-family="Verdana" font-size="12">1,1</text>
<line x1="70" y1="68" x2="218" y2="68" stroke="#5aae61" stroke-width="2"/>
<text x="109" y="85.0" fill="#762a83" font-family="Verdana" font-size="12">0,N</text>
<g id="association-MAKE A">
	<path d="M 235 43 a 14 14 90 0 1 14 14 V 68 h -62 V 57 a 14 14 90 0 1 14 -14" fill="#a6dba0" stroke="#a6dba0" stroke-width="0"/>
	<path d="M 249 68.0 v 11 a 14 14 90 0 1 -14 14 H 201 a 14 14 90 0 1 -14 -14 V 68.0 H 62" fill="#d9f0d3" stroke="#d9f0d3" stroke-width="0"/>
	<rect x="187" y="43" width="62" height="50" fill="none" rx="14" stroke="#5aae61" stroke-width="2"/>
	<line x1="187" y1="68" x2="249" y2="68" stroke="#5aae61" stroke-width="1"/>
	<text x="194" y="60.7" fill="#000000" font-family="Verdana" font-size="12">MAKE A</text>
</g>

<!-- Association HAS -->
<line x1="218" y1="237" x2="359" y2="237" stroke="#5aae61" stroke-width="2"/>
<text x="270" y="254.0" fill="#762a83" font-family="Verdana" font-size="12">0,N</text>
<line x1="359" y1="68" x2="359" y2="237" stroke="#5aae61" stroke-width="2"/>
<text x="364.0" y="136" fill="#762a83" font-family="Verdana" font-size="12">1,1</text>
<g id="association-HAS">
	<path d="M 365 212 a 14 14 90 0 1 14 14 V 237 h -40 V 226 a 14 14 90 0 1 14 -14" fill="#a6dba0" stroke="#a6dba0" stroke-width="0"/>
	<path d="M 379 237.0 v 11 a 14 14 90 0 1 -14 14 H 353 a 14 14 90 0 1 -14 -14 V 237.0 H 40" fill="#d9f0d3" stroke="#d9f0d3" stroke-width="0"/>
	<rect x="339" y="212" width="40" height="50" fill="none" rx="14" stroke="#5aae61" stroke-width="2"/>
	<line x1="339" y1="237" x2="379" y2="237" stroke="#5aae61" stroke-width="1"/>
	<text x="346" y="229.7" fill="#000000" font-family="Verdana" font-size="12">HAS</text>
</g>

<!-- Association BELONGS TO -->
<line x1="218" y1="237" x2="70" y2="237" stroke="#5aae61" stroke-width="2"/>
<text x="145" y="254.0" fill="#762a83" font-family="Verdana" font-size="12">1,1</text>
<line x1="70" y1="406" x2="70" y2="237" stroke="#5aae61" stroke-width="2"/>
<text x="75.0" y="364" fill="#762a83" font-family="Verdana" font-size="12">1,N</text>
<g id="association-BELONGS TO">
	<path d="M 104 212 a 14 14 90 0 1 14 14 V 237 h -96 V 226 a 14 14 90 0 1 14 -14" fill="#a6dba0" stroke="#a6dba0" stroke-width="0"/>
	<path d="M 118 237.0 v 11 a 14 14 90 0 1 -14 14 H 36 a 14 14 90 0 1 -14 -14 V 237.0 H 96" fill="#d9f0d3" stroke="#d9f0d3" stroke-width="0"/>
	<rect x="22" y="212" width="96" height="50" fill="none" rx="14" stroke="#5aae61" stroke-width="2"/>
	<line x1="22" y1="237" x2="118" y2="237" stroke="#5aae61" stroke-width="1"/>
	<text x="29" y="229.7" fill="#000000" font-family="Verdana" font-size="12">BELONGS TO</text>
</g>

<!-- Association IS WRITTEN BY -->
<line x1="218" y1="237" x2="218" y2="406" stroke="#5aae61" stroke-width="2"/>
<text x="223.0" y="373" fill="#762a83" font-family="Verdana" font-size="12">1,N</text>
<line x1="359" y1="406" x2="218" y2="406" stroke="#5aae61" stroke-width="2"/>
<text x="278" y="423.0" fill="#762a83" font-family="Verdana" font-size="12">1,N</text>
<g id="association-IS WRITTEN BY">
	<path d="M 259 381 a 14 14 90 0 1 14 14 V 406 h -110 V 395 a 14 14 90 0 1 14 -14" fill="#a6dba0" stroke="#a6dba0" stroke-width="0"/>
	<path d="M 273 406.0 v 11 a 14 14 90 0 1 -14 14 H 177 a 14 14 90 0 1 -14 -14 V 406.0 H 110" fill="#d9f0d3" stroke="#d9f0d3" stroke-width="0"/>
	<rect x="163" y="381" width="110" height="50" fill="none" rx="14" stroke="#5aae61" stroke-width="2"/>
	<line x1="163" y1="406" x2="273" y2="406" stroke="#5aae61" stroke-width="1"/>
	<text x="170" y="398.7" fill="#000000" font-family="Verdana" font-size="12">IS WRITTEN BY</text>
</g>

<!-- Entity CATEGORY -->
<g id="entity-CATEGORY">
	<g id="frame-CATEGORY">
		<rect x="9" y="372" width="122" height="25" fill="#c2a5cf" stroke="#c2a5cf" stroke-width="0"/>
		<rect x="9" y="397.0" width="122" height="43" fill="#e7d4e8" stroke="#e7d4e8" stroke-width="0"/>
		<rect x="9" y="372" width="122" height="68" fill="none" stroke="#9970ab" stroke-width="2"/>
		<line x1="9" y1="397" x2="131" y2="397" stroke="#9970ab" stroke-width="1"/>
	</g>
	<text x="36" y="389.7" fill="#000000" font-family="Verdana" font-size="12">CATEGORY</text>
	<text x="14" y="414.8" fill="#000000" font-family="Verdana" font-size="12">CategoryIdentifier</text>
	<line x1="14" y1="417" x2="125" y2="417" stroke="#000000" stroke-width="1"/>
	<text x="14" y="431.8" fill="#000000" font-family="Verdana" font-size="12">Name</text>
</g>

<!-- Entity REVIEW -->
<g id="entity-REVIEW">
	<g id="frame-REVIEW">
		<rect x="304" y="17" width="110" height="25" fill="#c2a5cf" stroke="#c2a5cf" stroke-width="0"/>
		<rect x="304" y="42.0" width="110" height="77" fill="#e7d4e8" stroke="#e7d4e8" stroke-width="0"/>
		<rect x="304" y="17" width="110" height="102" fill="none" stroke="#9970ab" stroke-width="2"/>
		<line x1="304" y1="42" x2="414" y2="42" stroke="#9970ab" stroke-width="1"/>
	</g>
	<text x="334" y="34.7" fill="#000000" font-family="Verdana" font-size="12">REVIEW</text>
	<text x="309" y="59.7" fill="#000000" font-family="Verdana" font-size="12">ReviewIdentifier</text>
	<line x1="309" y1="62" x2="408" y2="62" stroke="#000000" stroke-width="1"/>
	<text x="309" y="76.8" fill="#000000" font-family="Verdana" font-size="12">Comment</text>
	<text x="309" y="93.8" fill="#000000" font-family="Verdana" font-size="12">PublicationDate</text>
	<text x="309" y="110.8" fill="#000000" font-family="Verdana" font-size="12">Rating</text>
</g>

<!-- Entity BOOK -->
<g id="entity-BOOK">
	<g id="frame-BOOK">
		<rect x="171" y="118" width="94" height="25" fill="#c2a5cf" stroke="#c2a5cf" stroke-width="0"/>
		<rect x="171" y="143.0" width="94" height="213" fill="#e7d4e8" stroke="#e7d4e8" stroke-width="0"/>
		<rect x="171" y="118" width="94" height="238" fill="none" stroke="#9970ab" stroke-width="2"/>
		<line x1="171" y1="143" x2="265" y2="143" stroke="#9970ab" stroke-width="1"/>
	</g>
	<text x="200" y="135.7" fill="#000000" font-family="Verdana" font-size="12">BOOK</text>
	<text x="176" y="160.7" fill="#000000" font-family="Verdana" font-size="12">ISBN</text>
	<line x1="176" y1="163" x2="208" y2="163" stroke="#000000" stroke-width="1"/>
	<text x="176" y="177.7" fill="#000000" font-family="Verdana" font-size="12">Title</text>
	<text x="176" y="194.7" fill="#000000" font-family="Verdana" font-size="12">Author</text>
	<text x="176" y="211.7" fill="#000000" font-family="Verdana" font-size="12">Price</text>
	<text x="176" y="228.7" fill="#000000" font-family="Verdana" font-size="12">Years</text>
	<text x="176" y="245.8" fill="#000000" font-family="Verdana" font-size="12">Picture</text>
	<text x="176" y="262.8" fill="#000000" font-family="Verdana" font-size="12">Summary</text>
	<text x="176" y="279.8" fill="#000000" font-family="Verdana" font-size="12">Editor</text>
	<text x="176" y="296.8" fill="#000000" font-family="Verdana" font-size="12">Category</text>
	<text x="176" y="313.8" fill="#000000" font-family="Verdana" font-size="12">NumberPages</text>
	<text x="176" y="330.8" fill="#000000" font-family="Verdana" font-size="12">Format</text>
	<text x="176" y="347.8" fill="#000000" font-family="Verdana" font-size="12">Status</text>
</g>

<!-- Entity USER -->
<g id="entity-USER">
	<g id="frame-USER">
		<rect x="36" y="9" width="68" height="25" fill="#c2a5cf" stroke="#c2a5cf" stroke-width="0"/>
		<rect x="36" y="34.0" width="68" height="93" fill="#e7d4e8" stroke="#e7d4e8" stroke-width="0"/>
		<rect x="36" y="9" width="68" height="118" fill="none" stroke="#9970ab" stroke-width="2"/>
		<line x1="36" y1="34" x2="104" y2="34" stroke="#9970ab" stroke-width="1"/>
	</g>
	<text x="53" y="26.7" fill="#000000" font-family="Verdana" font-size="12">USER</text>
	<text x="41" y="51.7" fill="#000000" font-family="Verdana" font-size="12">Email</text>
	<line x1="41" y1="54" x2="75" y2="54" stroke="#000000" stroke-width="1"/>
	<text x="41" y="68.8" fill="#000000" font-family="Verdana" font-size="12">Name</text>
	<text x="41" y="85.8" fill="#000000" font-family="Verdana" font-size="12">Password</text>
	<text x="41" y="102.8" fill="#000000" font-family="Verdana" font-size="12">Role</text>
	<text x="41" y="119.8" fill="#000000" font-family="Verdana" font-size="12">Address</text>
</g>

<!-- Entity AUTHOR -->
<g id="entity-AUTHOR">
	<g id="frame-AUTHOR">
		<rect x="305" y="372" width="108" height="25" fill="#c2a5cf" stroke="#c2a5cf" stroke-width="0"/>
		<rect x="305" y="397.0" width="108" height="43" fill="#e7d4e8" stroke="#e7d4e8" stroke-width="0"/>
		<rect x="305" y="372" width="108" height="68" fill="none" stroke="#9970ab" stroke-width="2"/>
		<line x1="305" y1="397" x2="413" y2="397" stroke="#9970ab" stroke-width="1"/>
	</g>
	<text x="333" y="389.7" fill="#000000" font-family="Verdana" font-size="12">AUTHOR</text>
	<text x="310" y="414.8" fill="#000000" font-family="Verdana" font-size="12">AuthorIdentifier</text>
	<line x1="310" y1="417" x2="407" y2="417" stroke="#000000" stroke-width="1"/>
	<text x="310" y="431.8" fill="#000000" font-family="Verdana" font-size="12">Name</text>
</g>
</svg>